<svg xmlns="http://www.w3.org/2000/svg" viewBox="0 0 128 128" width="72" height="72" role="img" aria-label="Weather icon (filled)">
  <title>Weather</title>

  <!-- Sun (filled) -->
  <circle cx="30" cy="30" r="12" fill="#FDB813"/>
  <g stroke="#FDB813" stroke-width="5" stroke-linecap="round">
    <line x1="30" y1="8"  x2="30" y2="2"/>
    <line x1="30" y1="58" x2="30" y2="52"/>
    <line x1="8"  y1="30" x2="2"  y2="30"/>
    <line x1="58" y1="30" x2="52" y2="30"/>
    <line x1="14" y1="14" x2="9"  y2="9"/>
    <line x1="46" y1="46" x2="51" y2="51"/>
    <line x1="46" y1="14" x2="51" y2="9"/>
    <line x1="14" y1="46" x2="9"  y2="51"/>
  </g>

  <!-- Cloud (filled) -->
  <path d="M54 88h44c11 0 20-9 20-20 0-10-7-18-16-20
           -2-16-15-28-32-28-12 0-22 6-28 16-2 0-3 0-5 0
           -13 0-24 11-24 24s11 28 24 28h17z"
        fill="#D9E2EC"/>

  <!-- Thermometer (filled) -->
  <g>
    <!-- Outer body -->
    <path d="M78 16c-9 0-16 7-16 16v47.8c-6.4 4.2-10 11.3-10 18.9
             0 12.7 10.3 23 23 23s23-10.3 23-23c0-7.6-3.6-14.7-10-18.9V32
             c0-9-7-16-16-16z"
          fill="#2F3A45"/>
    <!-- Inner tube -->
    <path d="M78 26c-3.3 0-6 2.7-6 6v51.6c-4.3 2.6-7 7.3-7 12.4
             0 8.3 6.7 15 15 15s15-6.7 15-15c0-5.1-2.7-9.8-7-12.4V32
             c0-3.3-2.7-6-6-6z"
          fill="#F3F5F7"/>
    <!-- Mercury -->
    <path d="M78 36c-1.1 0-2 .9-2 2v46.5c-2.9 1.6-5 4.7-5 8.2
             0 5.2 4.2 9.3 9.3 9.3s9.3-4.2 9.3-9.3c0-3.5-2-6.6-5-8.2V38
             c0-1.1-.9-2-2-2z"
          fill="#E74C3C"/>
  </g>

</svg>